<?xml version="1.0" encoding="UTF-8" standalone="no"?>
<svg
   xmlns:osb="http://www.openswatchbook.org/uri/2009/osb"
   xmlns:dc="http://purl.org/dc/elements/1.1/"
   xmlns:cc="http://creativecommons.org/ns#"
   xmlns:rdf="http://www.w3.org/1999/02/22-rdf-syntax-ns#"
   xmlns:svg="http://www.w3.org/2000/svg"
   xmlns="http://www.w3.org/2000/svg"
   xmlns:sodipodi="http://sodipodi.sourceforge.net/DTD/sodipodi-0.dtd"
   xmlns:inkscape="http://www.inkscape.org/namespaces/inkscape"
   viewBox="0 0 250 250"
   height="250"
   width="250"
   version="1.1"
   id="svg"
   sodipodi:docname="icon.svg"
   inkscape:version="1.0.2-2 (e86c870879, 2021-01-15)">
  <sodipodi:namedview
     pagecolor="#ffffff"
     bordercolor="#666666"
     borderopacity="1"
     objecttolerance="10"
     gridtolerance="10"
     guidetolerance="10"
     inkscape:pageopacity="0"
     inkscape:pageshadow="2"
     inkscape:window-width="1920"
     inkscape:window-height="1017"
     id="namedview30"
     showgrid="false"
     inkscape:zoom="1.7"
     inkscape:cx="164.48559"
     inkscape:cy="150.26364"
     inkscape:window-x="1912"
     inkscape:window-y="-8"
     inkscape:window-maximized="1"
     inkscape:current-layer="svg"
     inkscape:document-rotation="0" />
  <metadata
     id="metadata12">
    <rdf:RDF>
      <cc:Work
         rdf:about="">
        <dc:format>image/svg+xml</dc:format>
        <dc:type
           rdf:resource="http://purl.org/dc/dcmitype/StillImage" />
        <dc:title></dc:title>
      </cc:Work>
    </rdf:RDF>
  </metadata>
  <defs
     id="defs10">
    <linearGradient
       osb:paint="solid"
       id="linearGradient826">
      <stop
         id="stop824"
         offset="0"
         style="stop-color:#ff0000;stop-opacity:1;" />
    </linearGradient>
  </defs>
  <path
     d="M 53.127411,215.0131 A 115.18487,115.17561 0 0 1 34.9877,53.145141 115.18487,115.17561 0 0 1 196.86826,35.003176 115.18487,115.17561 0 0 1 215.01538,196.87031 115.18487,115.17561 0 0 1 53.135672,215.01969"
     id="path822"
     style="display:inline;fill:none;fill-opacity:1;fill-rule:evenodd;stroke:#000000;stroke-width:16;stroke-miterlimit:4;stroke-dasharray:none;stroke-opacity:1" />
  <path
     d="M 64.478912,200.28625 A 96.403787,97.407874 0 0 1 49.291268,63.396226 96.403787,97.407874 0 0 1 184.76845,48.034407 96.403787,97.407874 0 0 1 199.98772,184.92083 96.403787,97.407874 0 0 1 64.514112,200.31462"
     id="path822-6"
     style="display:inline;fill:none;fill-opacity:1;fill-rule:evenodd;stroke:#000000;stroke-width:5.21579;stroke-miterlimit:4;stroke-dasharray:none;stroke-opacity:1" />
  <path
     d="m 121.06905,50.394492 c -1.44147,-0.01514 -2.87201,0.09153 -2.87201,0.326203 0,0.340656 -0.25478,0.509296 -1.1568,0.766733 -0.82971,0.236883 -3.70132,2.496027 -4.15416,3.268542 -0.1612,0.275478 -0.37624,0.543369 -0.47806,0.593953 -0.10259,0.05089 -0.38113,0.451071 -0.62103,0.890234 -0.23885,0.438479 -0.60087,0.967895 -0.80204,1.17617 -0.20213,0.207602 -0.36754,0.506974 -0.36754,0.665345 0,0.157733 -0.28393,0.817209 -0.63062,1.464713 -0.34572,0.647459 -0.7505,1.694215 -0.89832,2.326312 -0.14639,0.631479 -0.38823,1.333917 -0.53274,1.560809 -0.14442,0.226939 -0.38723,1.129653 -0.53914,2.006674 -0.15212,0.877675 -0.35803,2.055806 -0.4557,2.618684 -0.0981,0.563014 -0.30742,1.549038 -0.46703,2.192449 -0.24554,0.989518 -0.30686,2.898765 -0.39133,12.412771 l -0.10215,11.243043 -0.39962,0.304034 c -0.77367,0.586277 -1.59754,1.036097 -2.2301,1.219074 -0.35161,0.101367 -0.76579,0.271026 -0.92095,0.376889 -0.38035,0.258094 -3.546617,1.486999 -4.372205,1.695984 -0.363058,0.09339 -1.129758,0.361543 -1.702513,0.599123 -0.572523,0.236826 -1.276044,0.431469 -1.564302,0.431469 -0.287414,0 -1.074444,0.1971 -1.74893,0.436636 -0.674292,0.239493 -1.82394,0.510561 -2.555809,0.603056 -0.731995,0.09219 -1.818458,0.320593 -2.413224,0.506778 -1.54199,0.48175 -4.50556,0.73107 -5.078248,0.42753 l -0.426756,-0.226 -0.0035,-15.161475 c -7.65e-4,-15.393402 0.122164,-19.064164 0.672361,-20.27658 0.145304,-0.321389 0.482373,-1.246942 0.746182,-2.055971 0.263716,-0.809816 0.627187,-1.654439 0.808666,-1.876639 0.180418,-0.222323 0.445925,-0.719407 0.58726,-1.104698 0.140796,-0.38601 0.384535,-0.787804 0.540687,-0.892852 0.156098,-0.105537 0.487511,-0.515759 0.736521,-0.91361 0.248793,-0.397959 0.649769,-0.895134 0.888925,-1.104696 0.239744,-0.20896 0.43473,-0.433163 0.43473,-0.499029 0,-0.06584 0.237092,-0.297134 0.526287,-0.513392 1.845011,-1.379986 2.042783,-3.359152 0.457266,-4.56559 C 89.340012,51.13221 89.1419,50.859938 89.1419,50.71286 c 0,-0.241546 -0.179492,-0.266445 -1.894902,-0.266445 -1.746502,0 -1.894914,0.02274 -1.894914,0.280765 0,0.153664 -0.331399,0.531471 -0.736423,0.839489 -0.404239,0.308129 -0.96426,0.83372 -1.243622,1.167126 -0.280082,0.333297 -0.645132,0.728175 -0.810081,0.877169 -0.514391,0.461846 -1.150401,1.259285 -1.672065,2.096325 -0.275904,0.441885 -0.633176,0.923209 -0.795844,1.069658 -0.16218,0.147005 -0.398844,0.564541 -0.52466,0.9279 -0.126338,0.363266 -0.41802,0.887565 -0.651304,1.165728 -0.232592,0.278181 -0.537448,0.914336 -0.675567,1.412707 -0.136946,0.498327 -0.459366,1.368862 -0.714072,1.935136 -0.275852,0.610804 -0.537343,1.621224 -0.644956,2.484888 -0.0999,0.8004 -0.318446,1.850371 -0.487627,2.332775 -0.279434,0.797151 -0.313072,2.393644 -0.375473,17.487653 -0.06562,15.404111 -0.09327,16.625196 -0.377058,16.828826 -0.243972,0.17427 -1.144902,0.23928 -4.426931,0.3169 -4.486146,0.10595 -4.683704,0.1352 -5.766537,0.88656 -0.403349,0.2794 -0.881389,0.50809 -1.062055,0.50809 -0.296469,0 -0.328977,0.14836 -0.328977,1.53616 0,1.39402 0.02942,1.53359 0.332059,1.53359 0.182022,0 0.488234,0.13983 0.677235,0.31069 0.460129,0.41514 2.036211,1.22532 2.6105,1.3424 0.253904,0.0506 0.74207,0.25782 1.083006,0.46013 0.341678,0.20158 0.972645,0.50042 1.403835,0.66273 0.431334,0.16298 1.080311,0.4922 1.440821,0.73296 0.360697,0.24093 0.753731,0.43802 0.874515,0.43802 0.121633,0 0.325982,0.11741 0.455625,0.26126 0.130162,0.14367 0.495529,0.41028 0.815089,0.5913 0.923467,0.52441 2.023391,1.46547 2.125971,1.81958 0.05152,0.17819 0.117628,16.63571 0.142178,36.57264 0.04369,34.20104 0.06542,36.28924 0.365695,36.97919 0.174295,0.40192 0.401229,1.22449 0.503897,1.82728 0.132424,0.77584 0.368339,1.35869 0.805452,1.9963 0.340095,0.49564 0.619355,0.99221 0.619355,1.10328 0,0.90972 3.716564,3.87015 5.638114,4.49141 0.750027,0.24231 1.038161,0.41211 1.038161,0.61093 0,0.26017 0.193494,0.27549 3.608493,0.27549 3.420812,0 3.61011,-0.0145 3.61011,-0.27682 0,-0.20425 0.30495,-0.37616 1.159942,-0.65363 1.28076,-0.41526 1.448956,-0.51669 3.225081,-1.95211 1.848377,-1.49249 1.903939,-1.55072 2.339459,-2.39786 0.221703,-0.43243 0.55248,-0.96228 0.733013,-1.17851 0.180038,-0.21634 0.435192,-0.80759 0.566522,-1.31535 0.13108,-0.50708 0.43098,-1.35028 0.66437,-1.87264 l 0.42343,-0.95016 v -11.83951 c 0,-11.87939 -0.0765,-13.88851 -0.72519,-19.07451 -0.14589,-1.16585 -0.34421,-3.49989 -0.44112,-5.18806 -0.12237,-2.10677 -0.284199,-3.41278 -0.518291,-4.1653 -0.187176,-0.60289 -0.394776,-1.55679 -0.460561,-2.11979 -0.290688,-2.50272 -0.717505,-4.85583 -0.946657,-5.22048 -0.13736,-0.21828 -0.377323,-1.19933 -0.534266,-2.18069 -0.157416,-0.98152 -0.483779,-2.25003 -0.723602,-2.81891 -0.240769,-0.5682 -0.518149,-1.49313 -0.61939,-2.05345 -0.101003,-0.56023 -0.377129,-1.36315 -0.614468,-1.78314 -0.237386,-0.41971 -0.572038,-1.2763 -0.742941,-1.90392 -0.169493,-0.62732 -0.449084,-1.30529 -0.620959,-1.50622 -0.169831,-0.20102 -0.412543,-0.7271 -0.537435,-1.16965 -0.125663,-0.44176 -0.450846,-1.13173 -0.725246,-1.53358 -0.273476,-0.40192 -0.550494,-0.96604 -0.612878,-1.25286 -0.06116,-0.28738 -0.354898,-0.83058 -0.649849,-1.2073 -0.294941,-0.37673 -0.588885,-0.86547 -0.652975,-1.08656 -0.0641,-0.22024 -0.298889,-0.59866 -0.521444,-0.84073 -0.221868,-0.2422 -0.585344,-0.7824 -0.807053,-1.20076 -0.222658,-0.41867 -0.508885,-0.8319 -0.637051,-0.9177 -0.129441,-0.0867 -0.450201,-0.51671 -0.715574,-0.95516 -0.265383,-0.43853 -0.55705,-0.798 -0.648247,-0.798 -0.09174,0 -0.329099,-0.27852 -0.527797,-0.61999 -0.198836,-0.34182 -0.606074,-0.83221 -0.903395,-1.08902 -0.298055,-0.2568 -0.542278,-0.51133 -0.542278,-0.56665 0,-0.11281 -1.004096,-1.08839 -1.808374,-1.75314 -1.003775,-0.82976 -1.328838,-3.63862 -0.492569,-4.26145 0.501184,-0.37327 2.794717,-0.86083 4.999614,-1.06308 0.911136,-0.085 2.231496,-0.315 2.933076,-0.51334 0.701513,-0.199 1.930576,-0.46191 2.730653,-0.58482 0.80036,-0.12178 1.636313,-0.31967 1.858136,-0.43682 0.221032,-0.11739 0.994567,-0.34628 1.720016,-0.50932 0.726209,-0.16304 1.726701,-0.45675 2.223685,-0.65239 0.49706,-0.19559 1.10715,-0.39399 1.35585,-0.44186 0.2484,-0.0463 1.01953,-0.31009 1.71375,-0.58361 0.69493,-0.27273 1.46549,-0.56529 1.71338,-0.64973 0.24829,-0.086 0.62804,-0.25964 0.84402,-0.38735 0.88812,-0.52433 0.86502,-1.03363 0.96277,20.25194 l 0.0907,19.80501 0.40289,0.95002 c 0.22191,0.52224 0.56402,1.49768 0.76215,2.1664 0.19872,0.66946 0.51948,1.37885 0.71235,1.57764 0.19316,0.19906 0.40841,0.56866 0.47674,0.8215 0.0669,0.25219 0.43917,0.83199 0.82443,1.28919 0.38552,0.45706 0.69968,0.88101 0.69968,0.94226 0,0.12432 0.888,0.96422 2.16123,2.04556 0.96123,0.81644 2.48621,1.8273 2.75661,1.8273 0.0976,0 0.55315,0.22053 1.01243,0.48997 0.4601,0.26939 1.2429,0.57018 1.73913,0.66799 0.49619,0.0983 1.06883,0.26314 1.27091,0.36919 1.48267,0.77777 7.30335,0.79443 9.37188,0.0269 0.50673,-0.18766 1.20945,-0.38527 1.56269,-0.43921 0.35249,-0.0532 1.03945,-0.32554 1.52582,-0.60572 0.48561,-0.2801 0.95193,-0.50937 1.03487,-0.50937 0.47746,0 4.8135,-3.44226 4.8135,-3.82097 0,-0.33597 0.73886,-0.0542 1.49231,0.56804 2.10621,1.74201 2.67239,2.18589 3.31814,2.6005 1.12694,0.72202 3.15884,1.64103 4.03034,1.82211 0.4469,0.0933 0.97399,0.25288 1.17288,0.35471 1.40475,0.72077 6.74635,0.81736 8.92423,0.16123 0.35158,-0.10595 0.92473,-0.27392 1.27225,-0.37313 3.03776,-0.8656 5.68577,-2.53559 8.10266,-5.10863 l 0.33854,-0.36276 0.87614,0.64863 c 0.48221,0.35601 0.9806,0.76277 1.10699,0.90328 0.21846,0.24213 1.08277,0.92341 2.64115,2.08319 0.3868,0.28834 0.80013,0.5238 0.91929,0.5238 0.1212,0 0.53714,0.1883 0.92892,0.41851 0.39283,0.23016 1.03452,0.50115 1.4263,0.60158 0.39122,0.10053 1.23743,0.34443 1.88072,0.54322 2.40533,0.7441 7.29675,0.7402 9.26745,-0.0145 0.51268,-0.19437 1.21691,-0.40151 1.56448,-0.4601 0.34742,-0.0594 1.01575,-0.32826 1.48735,-0.60043 0.47226,-0.27214 0.95273,-0.49508 1.06682,-0.49508 0.22596,0 3.02459,-1.979 3.29406,-2.32885 0.0902,-0.11704 0.33601,-0.34778 0.54716,-0.51349 0.21121,-0.16496 0.53247,-0.49733 0.7156,-0.73812 0.18189,-0.24087 0.51554,-0.60361 0.73804,-0.80448 0.22268,-0.201 0.45195,-0.53143 0.51021,-0.73427 0.0582,-0.20229 0.34931,-0.6648 0.64503,-1.02683 0.29659,-0.36186 0.62883,-0.98534 0.73802,-1.38529 0.11053,-0.39997 0.39084,-1.12129 0.62584,-1.6037 0.819,-1.68353 1.1637,-7.26324 0.52792,-8.55021 -0.87172,-1.76404 -4.55298,-1.87999 -5.95122,-0.18725 -0.27927,0.33805 -0.35535,0.81965 -0.45562,2.89034 -0.0781,1.59373 -0.21717,2.72058 -0.39306,3.14267 -0.14934,0.36179 -0.49277,1.25009 -0.75895,1.97403 -0.26696,0.72334 -0.58821,1.4131 -0.71567,1.53344 -0.12734,0.11922 -0.36429,0.45474 -0.52944,0.74224 -0.16383,0.28677 -0.5706,0.75678 -0.9033,1.04222 -0.33263,0.28543 -0.67592,0.60952 -0.76214,0.71998 -0.81486,1.04875 -4.49788,2.32063 -6.70673,2.31719 -5.00119,-0.0145 -8.78584,-3.12017 -10.1404,-8.33832 l -0.55201,-2.12751 0.0645,-10.80762 c 0.0418,-6.9335 0.13441,-11.04342 0.25664,-11.46522 0.10693,-0.362 0.35172,-1.23682 0.54702,-1.94552 0.19565,-0.70935 0.52863,-1.47996 0.74143,-1.71289 0.212,-0.2322 0.38513,-0.51022 0.38513,-0.61868 0,-0.48697 2.80128,-3.32309 3.28269,-3.32309 0.097,0 0.5142,-0.19396 0.92736,-0.43143 1.65791,-0.95423 5.28976,-1.18371 7.94236,-0.50171 0.42879,0.11094 1.8167,0.8378 2.96031,1.55185 3.81258,2.38145 8.07555,-1.51871 4.53912,-4.15242 -0.63595,-0.47367 -1.32074,-0.9847 -1.52101,-1.13569 -0.20051,-0.14986 -0.81739,-0.44045 -1.37039,-0.64475 -0.55281,-0.20489 -1.10893,-0.47529 -1.23541,-0.59907 -0.12845,-0.12338 -0.37615,-0.2248 -0.55358,-0.2248 -0.17664,0 -1.08131,-0.21234 -2.00869,-0.47171 -2.51805,-0.70545 -5.9411,-0.7073 -8.39008,-0.009 -0.90846,0.26158 -1.81173,0.47568 -2.0055,0.47568 -0.19486,0 -0.5481,0.12191 -0.78466,0.27167 -0.23663,0.14887 -0.71298,0.38773 -1.06055,0.52886 -0.97673,0.3973 -2.51947,1.37832 -3.5636,2.26658 -1.53472,1.30484 -1.59105,1.36114 -2.09388,2.06386 -0.26529,0.37001 -0.64272,0.79062 -0.84062,0.93576 -0.19828,0.14373 -0.35963,0.37237 -0.35963,0.50541 0,0.13348 -0.32509,0.76043 -0.72186,1.39316 -0.3967,0.63221 -0.72198,1.327 -0.72198,1.54272 0,0.21631 -0.26154,1.00904 -0.5809,1.76362 l -0.58242,1.37096 -0.0987,12.49726 -0.0985,12.49581 -0.47816,1.09681 c -0.26292,0.60297 -0.60676,1.4709 -0.76533,1.92869 -0.15773,0.4586 -0.36993,0.87552 -0.47005,0.92532 -0.0997,0.0495 -0.39359,0.43074 -0.6531,0.84742 -0.25953,0.41655 -0.69484,0.93077 -0.9676,1.1436 -0.27259,0.21246 -0.52596,0.45357 -0.56307,0.53554 -0.39843,0.89091 -4.62266,2.3666 -6.77409,2.3666 -3.37545,0 -7.44063,-2.20249 -8.65146,-4.68653 -0.1735,-0.35724 -0.45876,-0.81263 -0.63376,-1.01366 -0.30402,-0.35007 -0.92304,-2.66914 -1.24816,-4.67731 -0.0851,-0.52234 -0.15824,-8.44791 -0.16462,-17.6124 -0.0177,-17.99925 -0.0177,-17.92902 -0.94837,-18.53788 -0.22671,-0.14606 -0.59392,-0.39152 -0.81513,-0.54449 -1.32495,-0.91426 -4.16735,-0.10627 -4.86154,1.38019 -0.15592,0.33805 -0.21471,4.93306 -0.22612,17.9218 -0.0178,17.80028 -0.0841,19.75418 -0.71087,20.36635 -0.10725,0.10496 -0.31883,0.6212 -0.47011,1.15016 -0.16185,0.56825 -0.53347,1.27214 -0.90657,1.722 -0.3483,0.41771 -0.6329,0.83535 -0.63369,0.92797 -0.002,0.22351 -1.86164,1.72418 -2.90572,2.34441 -0.75501,0.44856 -2.8039,1.03935 -4.62576,1.3334 -0.73188,0.11765 -4.66154,-0.73087 -5.18905,-1.12147 -0.19789,-0.1463 -0.71961,-0.48065 -1.1583,-0.74212 -0.73768,-0.43989 -2.50237,-2.07762 -2.52866,-2.34708 -0.0115,-0.0656 -0.32326,-0.62364 -0.70456,-1.24245 -0.40165,-0.65275 -0.74574,-1.46218 -0.8199,-1.92867 -0.069,-0.44245 -0.28807,-1.49492 -0.48447,-2.33929 -0.34578,-1.48921 -0.35481,-2.13976 -0.30807,-22.0468 l 0.0494,-20.511971 1.08149,-0.79134 c 3.08393,-2.258395 6.35255,-5.157619 7.56515,-6.709925 0.18813,-0.24159 0.44863,-0.490425 0.57917,-0.553673 0.13033,-0.06271 0.39888,-0.412532 0.59841,-0.778569 0.20049,-0.365867 0.56226,-0.857389 0.80553,-1.091648 0.24304,-0.234205 0.49901,-0.574095 0.56638,-0.755004 0.066,-0.18166 0.26397,-0.460925 0.4349,-0.621244 0.17121,-0.161008 0.49687,-0.673309 0.72371,-1.13719 0.22659,-0.464491 0.54872,-0.990631 0.71552,-1.169627 0.16704,-0.178402 0.40939,-0.62055 0.53587,-0.982569 0.12843,-0.361299 0.45736,-1.022119 0.7332,-1.467241 0.27701,-0.445845 0.56225,-1.159536 0.63541,-1.588151 0.0732,-0.428492 0.32592,-1.122141 0.56159,-1.540017 0.25055,-0.443207 0.5744,-1.516492 0.77815,-2.577176 0.19233,-0.999433 0.47069,-2.079003 0.61768,-2.4004 0.93246,-2.03743 0.8935,-12.638262 -0.0523,-14.324362 -0.17973,-0.321429 -0.46227,-1.044738 -0.6257,-1.607673 -0.16285,-0.562929 -0.4895,-1.253382 -0.72367,-1.534824 -0.23417,-0.280817 -0.48779,-0.676296 -0.56175,-0.877267 -0.28085,-0.762541 -2.57817,-2.68863 -3.74791,-3.143777 -0.50195,-0.195644 -0.77412,-0.403612 -0.81195,-0.621202 -0.0413,-0.235571 -1.49314,-0.36637 -2.93468,-0.379501 z m 0.32411,6.067836 c 0.1226,-0.01514 0.56223,0.35129 0.97876,0.808391 0.59965,0.657457 0.82299,1.077654 1.067,2.009249 0.16982,0.648126 0.44383,1.573553 0.60965,2.055997 0.6456,1.882433 0.5605,6.306228 -0.17724,9.170109 -0.13932,0.542273 -0.37823,1.75077 -0.52945,2.685048 -0.15114,0.934885 -0.39681,1.906406 -0.54544,2.159905 -0.14638,0.25288 -0.46373,1.094315 -0.70116,1.870097 -0.23675,0.775271 -0.55964,1.595942 -0.71742,1.82355 -0.15595,0.228146 -0.45316,0.831357 -0.65772,1.341121 -0.20461,0.509114 -0.53033,1.064321 -0.7253,1.233308 -0.19441,0.169705 -0.35453,0.397085 -0.35453,0.506872 0,0.231527 -0.52469,1.098868 -0.73163,1.208584 -0.0773,0.03975 -0.35564,0.403205 -0.61773,0.804535 -0.26204,0.401316 -0.87835,1.189569 -1.3686,1.75188 -0.48973,0.562914 -1.08778,1.26282 -1.3301,1.555647 -0.46905,0.564959 -1.78867,0.874487 -1.98326,0.465335 -0.38609,-0.815092 0.007,-12.780644 0.52958,-16.271278 0.0538,-0.362015 0.17158,-1.546441 0.26159,-2.63175 0.11753,-1.418708 0.28978,-2.29224 0.6145,-3.108699 0.24796,-0.624145 0.5491,-1.643779 0.66883,-2.265243 0.12135,-0.621512 0.35702,-1.327774 0.52977,-1.568662 0.1728,-0.241488 0.49458,-0.899141 0.71386,-1.462032 0.2201,-0.562274 0.50412,-1.122016 0.63215,-1.242425 0.13008,-0.120022 0.37769,-0.448913 0.55359,-0.730402 0.60133,-0.964168 1.86409,-2.023948 2.48859,-2.087219 0.31536,-0.03187 0.67185,-0.06845 0.79259,-0.0819 z m 15.55884,30.52423 -0.93231,0.736933 c -0.9051,0.713846 -0.93763,0.766237 -1.00932,1.677852 -0.0995,1.258791 -0.007,1.48771 0.95964,2.298895 l 0.82473,0.695384 h 1.44566 c 1.82196,0 2.73632,-0.328841 3.1511,-1.133318 1.20116,-2.327538 -0.17107,-4.275746 -3.01334,-4.275746 z m -52.985102,34.021372 0.316049,0.3391 c 0.173318,0.18716 0.419866,0.60529 0.545521,0.93063 0.126341,0.32543 0.376033,0.72852 0.556703,0.89413 0.179728,0.16653 0.458339,0.65279 0.616196,1.08282 0.156255,0.42897 0.479815,1.02976 0.717143,1.33455 0.238186,0.30544 0.487917,0.83661 0.553598,1.18256 0.06511,0.34619 0.340272,0.99101 0.609661,1.43369 0.270281,0.44185 0.598682,1.26415 0.728395,1.82723 0.130931,0.56221 0.377095,1.25513 0.548767,1.53863 0.1714,0.28344 0.528972,1.36314 0.79273,2.3992 0.2636,1.03661 0.597418,2.07072 0.742771,2.29775 0.143752,0.22681 0.340363,1.0721 0.43491,1.87786 0.0957,0.80589 0.370426,2.13814 0.612811,2.96049 0.48716,1.65494 0.828686,3.69232 0.829531,4.94128 0,0.44784 0.15954,1.53373 0.352958,2.41191 0.469069,2.13406 0.68805,4.32295 0.905018,9.05061 0.10032,2.17066 0.283383,5.68982 0.409112,7.82002 0.680161,11.55196 0.140954,21.55839 -1.241859,23.03432 -0.233346,0.2488 -0.425229,0.51414 -0.425229,0.59 0,0.28348 -1.738512,1.48884 -2.387423,1.65571 -0.371341,0.0975 -0.723904,0.23859 -0.784617,0.3184 -0.149179,0.19705 -1.357319,0.0217 -2.385912,-0.34701 -1.910008,-0.68411 -3.310695,-2.58305 -3.622878,-4.9099 -0.141651,-1.05477 -0.20219,-10.75695 -0.20219,-32.74389 V 121.6824 l 0.389882,-0.33788 z"
     style="fill:#040404;fill-rule:evenodd;stroke:none;stroke-width:2.96065;stroke-miterlimit:4;stroke-dasharray:none"
     id="path1" />
</svg>
