<?xml version="1.0" encoding="UTF-8" standalone="no"?>
<svg
   xmlns:osb="http://www.openswatchbook.org/uri/2009/osb"
   xmlns:dc="http://purl.org/dc/elements/1.1/"
   xmlns:cc="http://creativecommons.org/ns#"
   xmlns:rdf="http://www.w3.org/1999/02/22-rdf-syntax-ns#"
   xmlns:svg="http://www.w3.org/2000/svg"
   xmlns="http://www.w3.org/2000/svg"
   viewBox="0 0 250 250"
   height="250"
   width="250"
   version="1.1"
   id="svg">
  <metadata
     id="metadata12">
    <rdf:RDF>
      <cc:Work
         rdf:about="">
        <dc:format>image/svg+xml</dc:format>
        <dc:type
           rdf:resource="http://purl.org/dc/dcmitype/StillImage" />
        <dc:title></dc:title>
      </cc:Work>
    </rdf:RDF>
  </metadata>
  <defs
     id="defs10">
    <linearGradient
       osb:paint="solid"
       id="linearGradient826">
      <stop
         id="stop824"
         offset="0"
         style="stop-color:#ff0000;stop-opacity:1;" />
    </linearGradient>
  </defs>
  <g
     style="stroke-width:0.94521278"
     transform="matrix(1.0579634,0,0,1.0579621,-81.756312,-19.054304)"
     id="svgg">
    <path
       d="M 123.65132,225.99524 A 115.03214,115.3018 0 0 1 105.53566,63.949924 115.03214,115.3018 0 0 1 267.20158,45.788082 115.03214,115.3018 0 0 1 285.32465,207.83257 115.03214,115.3018 0 0 1 123.65957,226.00184"
       id="path822"
       style="display:inline;fill:none;fill-opacity:1;fill-rule:evenodd;stroke:#000000;stroke-width:1.51234055;stroke-miterlimit:4;stroke-dasharray:none;stroke-opacity:1" />
    <path
       d="M 139.14121,205.90462 A 92.94799,91.393761 0 0 1 124.498,77.4664 92.94799,91.393761 0 0 1 255.11871,63.053044 92.94799,91.393761 0 0 1 269.79243,191.48789 92.94799,91.393761 0 0 1 139.17515,205.93125"
       id="path822-6"
       style="display:inline;fill:none;fill-opacity:1;fill-rule:evenodd;stroke:#000000;stroke-width:1.51234055;stroke-miterlimit:4;stroke-dasharray:none;stroke-opacity:1" />
    <path
       d="m 192.60572,82.8774 c -0.82836,-0.01074 -1.65044,0.06495 -1.65044,0.231432 0,0.241683 -0.14639,0.361328 -0.66475,0.543971 -0.47681,0.16806 -2.12701,1.770848 -2.38724,2.318921 -0.0926,0.195443 -0.21621,0.385502 -0.27473,0.42139 -0.059,0.0361 -0.21901,0.320021 -0.35686,0.631591 -0.13726,0.311087 -0.34531,0.686689 -0.46091,0.834453 -0.11615,0.147288 -0.21121,0.359684 -0.21121,0.47204 0,0.111907 -0.16317,0.579783 -0.36239,1.039166 -0.19867,0.459352 -0.43129,1.201989 -0.51623,1.65044 -0.0841,0.448014 -0.2231,0.946371 -0.30615,1.107343 -0.083,0.161005 -0.22253,0.801451 -0.30981,1.423668 -0.0874,0.622681 -0.20575,1.458526 -0.26188,1.857869 -0.0563,0.39944 -0.17666,1.09899 -0.26839,1.55547 -0.14111,0.702029 -0.17633,2.056577 -0.22486,8.806446 l -0.0586,7.97656 -0.22965,0.2157 c -0.44459,0.41595 -0.91804,0.73508 -1.28154,0.8649 -0.20207,0.0719 -0.44007,0.19228 -0.52923,0.26739 -0.21858,0.18311 -2.0381,1.05497 -2.51254,1.20324 -0.20864,0.0663 -0.64923,0.25651 -0.97837,0.42506 -0.329,0.16802 -0.73329,0.30612 -0.89894,0.30612 -0.16516,0 -0.61744,0.13983 -1.00504,0.30978 -0.38749,0.1699 -1.04815,0.36222 -1.46872,0.42784 -0.42065,0.0654 -1.045,0.22744 -1.38679,0.35954 -0.88611,0.34179 -2.58916,0.51867 -2.91826,0.30332 l -0.24524,-0.16034 -0.002,-10.75656 c -4.4e-4,-10.921105 0.0702,-13.525388 0.38638,-14.385557 0.0835,-0.228015 0.2772,-0.884664 0.4288,-1.458642 0.15154,-0.574537 0.36042,-1.173771 0.4647,-1.331414 0.10368,-0.15773 0.25626,-0.510396 0.33748,-0.783747 0.0809,-0.273859 0.22097,-0.558919 0.31071,-0.633448 0.0897,-0.07487 0.28015,-0.365913 0.42325,-0.648175 0.14297,-0.282338 0.37339,-0.635067 0.51083,-0.783746 0.13777,-0.14825 0.24982,-0.307313 0.24982,-0.354044 0,-0.04672 0.13625,-0.210806 0.30244,-0.364235 1.06025,-0.979054 1.1739,-2.383205 0.26277,-3.239134 -0.1397,-0.13122 -0.25355,-0.324388 -0.25355,-0.428735 0,-0.171369 -0.10314,-0.189034 -1.08892,-0.189034 -1.00365,0 -1.08893,0.01614 -1.08893,0.199194 0,0.109019 -0.19044,0.37706 -0.42319,0.595589 -0.2323,0.218607 -0.55412,0.591497 -0.71466,0.828037 -0.16095,0.236463 -0.37073,0.516616 -0.46552,0.622322 -0.2956,0.327665 -0.66109,0.89342 -0.96087,1.487273 -0.15855,0.313502 -0.36386,0.654985 -0.45734,0.758886 -0.0932,0.104295 -0.2292,0.400523 -0.3015,0.658314 -0.0726,0.257726 -0.24022,0.629698 -0.37428,0.827046 -0.13366,0.19736 -0.30885,0.64869 -0.38822,1.002268 -0.0787,0.353546 -0.26398,0.971163 -0.41035,1.372914 -0.15852,0.433346 -0.30879,1.150205 -0.37063,1.762945 -0.0574,0.567857 -0.183,1.312777 -0.28022,1.655026 -0.16058,0.565553 -0.17991,1.698212 -0.21577,12.406907 -0.0377,10.9287 -0.0536,11.79502 -0.21668,11.9395 -0.1402,0.12364 -0.65793,0.16975 -2.54398,0.22483 -2.57801,0.0751 -2.69154,0.0959 -3.3138,0.62897 -0.23179,0.19823 -0.5065,0.36048 -0.61032,0.36048 -0.17037,0 -0.18905,0.10525 -0.18905,1.08986 0,0.989 0.0169,1.08803 0.19082,1.08803 0.1046,0 0.28057,0.0992 0.38918,0.22041 0.26442,0.29452 1.17013,0.86933 1.50015,0.9524 0.14591,0.0358 0.42644,0.1829 0.62236,0.32644 0.19635,0.14301 0.55894,0.35503 0.80673,0.47019 0.24787,0.11563 0.62081,0.3492 0.82798,0.52002 0.20728,0.17092 0.43314,0.31075 0.50255,0.31075 0.0699,0 0.18733,0.0833 0.26183,0.18535 0.0748,0.10192 0.28476,0.29109 0.4684,0.41951 0.53068,0.37205 1.16276,1.0397 1.22171,1.29093 0.0296,0.12641 0.0676,11.80248 0.0817,25.94707 0.0251,24.26449 0.0376,25.746 0.21015,26.23551 0.10016,0.28515 0.23057,0.86873 0.28957,1.29639 0.0761,0.55041 0.21167,0.96395 0.46286,1.41631 0.19544,0.35163 0.35592,0.70393 0.35592,0.78274 0,0.64541 2.13576,2.74575 3.24,3.18649 0.43101,0.17192 0.59659,0.29238 0.59659,0.43345 0,0.18457 0.11119,0.19545 2.07365,0.19545 1.96581,0 2.07459,-0.0103 2.07459,-0.19642 0,-0.14488 0.17524,-0.26686 0.66657,-0.46371 0.736,-0.29461 0.83266,-0.36658 1.85333,-1.38496 1.06218,-1.05886 1.09411,-1.10018 1.34438,-1.70118 0.12742,-0.30682 0.3175,-0.68273 0.42125,-0.83614 0.10345,-0.15347 0.25008,-0.57296 0.32555,-0.9332 0.0753,-0.35973 0.24767,-0.95797 0.38179,-1.32857 l 0.24333,-0.6741 v -8.39974 c 0,-8.42801 -0.0439,-9.85342 -0.41674,-13.53272 -0.0838,-0.82714 -0.19781,-2.48306 -0.25349,-3.68076 -0.0703,-1.49468 -0.16332,-2.42125 -0.29784,-2.95513 -0.10757,-0.42773 -0.22686,-1.1045 -0.26466,-1.50393 -0.16706,-1.77559 -0.41233,-3.44505 -0.54402,-3.70376 -0.0789,-0.15487 -0.21683,-0.8509 -0.30702,-1.54713 -0.0905,-0.69635 -0.27801,-1.59632 -0.41582,-1.99992 -0.13836,-0.40311 -0.29776,-1.05933 -0.35594,-1.45685 -0.058,-0.39746 -0.21672,-0.9671 -0.35311,-1.26508 -0.13642,-0.29777 -0.32873,-0.9055 -0.42694,-1.35077 -0.0974,-0.44504 -0.25807,-0.92605 -0.35684,-1.06861 -0.0976,-0.14261 -0.23707,-0.51585 -0.30884,-0.82983 -0.0722,-0.31342 -0.25908,-0.80291 -0.41677,-1.08803 -0.15715,-0.28514 -0.31635,-0.68537 -0.3522,-0.88885 -0.0352,-0.20389 -0.20395,-0.58927 -0.37344,-0.85654 -0.16949,-0.26729 -0.33841,-0.61403 -0.37524,-0.77088 -0.0369,-0.15626 -0.17176,-0.42472 -0.29965,-0.59648 -0.1275,-0.17182 -0.33638,-0.55508 -0.46378,-0.8519 -0.12796,-0.29703 -0.29244,-0.59019 -0.36609,-0.65107 -0.0744,-0.0616 -0.25872,-0.36658 -0.41122,-0.67765 -0.1525,-0.31113 -0.32011,-0.56616 -0.37251,-0.56616 -0.0527,0 -0.18912,-0.19759 -0.30331,-0.43986 -0.11426,-0.2425 -0.34829,-0.59043 -0.51914,-0.77262 -0.17128,-0.1822 -0.31163,-0.36279 -0.31163,-0.40202 0,-0.0801 -0.57701,-0.77219 -1.0392,-1.24379 -0.57683,-0.58869 -0.76363,-2.58149 -0.28306,-3.02336 0.28801,-0.26483 1.60601,-0.61073 2.87308,-0.75423 0.52359,-0.0603 1.28235,-0.22348 1.68552,-0.3642 0.40313,-0.14117 1.10943,-0.32771 1.5692,-0.41491 0.45994,-0.0864 0.94032,-0.22678 1.06779,-0.30989 0.12702,-0.0833 0.57154,-0.24569 0.98843,-0.36135 0.41732,-0.11567 0.99226,-0.32405 1.27786,-0.46285 0.28563,-0.13878 0.63624,-0.27952 0.77916,-0.31349 0.14273,-0.0328 0.58588,-0.21999 0.98482,-0.41404 0.39936,-0.19351 0.84216,-0.40107 0.98461,-0.46099 0.14268,-0.061 0.36092,-0.18419 0.48502,-0.27479 0.51037,-0.372 0.49711,-0.73332 0.55327,14.36807 l 0.0522,14.05099 0.23153,0.67402 c 0.12753,0.3705 0.32413,1.06255 0.43798,1.53698 0.1142,0.47496 0.29852,0.97825 0.40936,1.11929 0.11101,0.14123 0.2347,0.40344 0.27396,0.58281 0.0385,0.17894 0.25238,0.59028 0.47378,0.91466 0.22153,0.32426 0.40206,0.62504 0.40206,0.6685 0,0.0882 0.5103,0.68408 1.24197,1.45125 0.5524,0.57924 1.42874,1.29639 1.58412,1.29639 0.0561,0 0.31789,0.15647 0.58181,0.34763 0.26439,0.19112 0.71425,0.40452 0.9994,0.47391 0.28514,0.0698 0.61422,0.18669 0.73035,0.26194 0.85204,0.5518 4.19695,0.56363 5.38564,0.0191 0.2912,-0.13313 0.69503,-0.27332 0.89802,-0.31161 0.20255,-0.0378 0.59733,-0.23094 0.87683,-0.42973 0.27906,-0.19871 0.54703,-0.36137 0.5947,-0.36137 0.27438,0 2.76613,-2.44218 2.76613,-2.71086 0,-0.23835 0.42459,-0.0385 0.85756,0.40301 1.21036,1.23589 1.53572,1.55082 1.90681,1.84498 0.64762,0.51225 1.81526,1.16424 2.31609,1.29272 0.25681,0.0662 0.5597,0.17941 0.674,0.25165 0.80726,0.51136 3.87685,0.57989 5.12839,0.11438 0.20204,-0.0751 0.53141,-0.19433 0.73111,-0.26471 1.74568,-0.61413 3.26739,-1.79893 4.65628,-3.62442 l 0.19455,-0.25736 0.50349,0.46019 c 0.2771,0.25257 0.5635,0.54116 0.63613,0.64085 0.12555,0.17178 0.62223,0.65512 1.51776,1.47795 0.22228,0.20457 0.45982,0.37162 0.52827,0.37162 0.0697,0 0.30868,0.13359 0.53384,0.29692 0.22573,0.16328 0.59449,0.35554 0.81963,0.4268 0.22481,0.0713 0.71109,0.24436 1.08076,0.38539 1.38225,0.52792 4.19316,0.52514 5.32565,-0.0103 0.29461,-0.13789 0.6993,-0.28485 0.89904,-0.32643 0.19965,-0.0422 0.5837,-0.23288 0.85472,-0.42599 0.27139,-0.19308 0.5475,-0.35123 0.61306,-0.35123 0.12985,0 1.73812,-1.40404 1.89296,-1.65225 0.0519,-0.0831 0.19309,-0.24673 0.31443,-0.36431 0.12138,-0.11702 0.30601,-0.35282 0.41124,-0.52366 0.10452,-0.17089 0.29625,-0.42824 0.42411,-0.57074 0.12798,-0.14262 0.25973,-0.37704 0.29321,-0.52095 0.0334,-0.14353 0.20073,-0.47166 0.37067,-0.7285 0.17043,-0.25674 0.36137,-0.69907 0.42412,-0.98282 0.0635,-0.28377 0.2246,-0.79552 0.35964,-1.13777 0.47065,-1.19442 0.66872,-5.15303 0.30338,-6.0661 -0.50094,-1.25152 -2.61642,-1.33377 -3.41994,-0.13284 -0.16047,0.23983 -0.20419,0.58152 -0.26182,2.0506 -0.0449,1.1307 -0.12481,1.93016 -0.22588,2.22962 -0.0858,0.25668 -0.28318,0.88689 -0.43614,1.40051 -0.15342,0.51318 -0.33802,1.00254 -0.41126,1.08792 -0.0732,0.0846 -0.20934,0.32262 -0.30425,0.52659 -0.0941,0.20347 -0.3279,0.53692 -0.51909,0.73942 -0.19115,0.20251 -0.38842,0.43243 -0.43797,0.51081 -0.46827,0.74404 -2.58476,1.64641 -3.8541,1.64397 -2.87398,-0.0102 -5.04887,-2.21367 -5.82728,-5.91576 l -0.31722,-1.50941 0.037,-7.66763 c 0.024,-4.91909 0.0772,-7.83494 0.14748,-8.1342 0.0614,-0.25682 0.20212,-0.87747 0.31435,-1.38028 0.11244,-0.50327 0.30378,-1.04997 0.42607,-1.21523 0.12183,-0.16474 0.22132,-0.362 0.22132,-0.43895 0,-0.34548 1.60978,-2.35762 1.88644,-2.35762 0.0559,0 0.29548,-0.1376 0.53292,-0.30607 0.95272,-0.677 3.03981,-0.83981 4.56413,-0.35595 0.24643,0.0787 1.04399,0.59439 1.70119,1.10098 2.19093,1.68956 4.6407,-1.07748 2.60844,-2.946 -0.36544,-0.33606 -0.75896,-0.69861 -0.87405,-0.80574 -0.11522,-0.10632 -0.46972,-0.31249 -0.78752,-0.45743 -0.31767,-0.14536 -0.63725,-0.33719 -0.70994,-0.42501 -0.0738,-0.0875 -0.21616,-0.1595 -0.31812,-0.1595 -0.1015,0 -0.62139,-0.15064 -1.15432,-0.33466 -1.44701,-0.50049 -3.4141,-0.50181 -4.82143,-0.006 -0.52206,0.18558 -1.04112,0.33748 -1.15249,0.33748 -0.11197,0 -0.31496,0.0865 -0.45091,0.19274 -0.13597,0.10561 -0.40972,0.27508 -0.60945,0.3752 -0.56128,0.28187 -1.44784,0.97786 -2.04787,1.60808 -0.88194,0.92574 -0.9143,0.96567 -1.20325,1.46424 -0.15246,0.2625 -0.36936,0.56091 -0.48309,0.66387 -0.11394,0.10198 -0.20666,0.2642 -0.20666,0.35859 0,0.0947 -0.18681,0.5395 -0.41484,0.9884 -0.22795,0.44853 -0.41488,0.94147 -0.41488,1.0945 0,0.15347 -0.15029,0.71587 -0.33382,1.25123 l -0.33469,0.97266 -0.0567,8.86638 -0.0565,8.86537 -0.27476,0.77814 c -0.1511,0.42779 -0.34869,1.04356 -0.43981,1.36835 -0.0906,0.32535 -0.21259,0.62114 -0.27013,0.65646 -0.0574,0.0351 -0.22616,0.30563 -0.3753,0.60124 -0.14915,0.29552 -0.3993,0.66034 -0.55604,0.81135 -0.15666,0.15073 -0.30226,0.32179 -0.32358,0.37993 -0.22896,0.63209 -2.65646,1.67903 -3.8928,1.67903 -1.93974,0 -4.27583,-1.56259 -4.97165,-3.32494 -0.0997,-0.25344 -0.26363,-0.57653 -0.3642,-0.71914 -0.17471,-0.24839 -0.53043,-1.89367 -0.71727,-3.31841 -0.049,-0.37059 -0.0909,-5.99351 -0.0946,-12.4954 -0.0102,-12.76987 -0.0102,-12.72005 -0.54498,-13.15201 -0.13029,-0.10363 -0.34131,-0.27777 -0.46843,-0.38631 -0.76139,-0.64863 -2.3948,-0.0754 -2.79372,0.97922 -0.0896,0.23982 -0.1234,3.49982 -0.12995,12.71492 -0.0102,12.62868 -0.0484,14.01491 -0.4085,14.44923 -0.0617,0.0745 -0.18323,0.44071 -0.27016,0.81599 -0.093,0.40316 -0.30657,0.90256 -0.52097,1.2217 -0.20016,0.29637 -0.36371,0.59267 -0.36417,0.65838 -0.002,0.15857 -1.0698,1.22326 -1.66979,1.66327 -0.43387,0.31825 -1.61129,0.73739 -2.65825,0.94601 -0.42057,0.0835 -2.6788,-0.51853 -2.98194,-0.79564 -0.11372,-0.10381 -0.41353,-0.34101 -0.66562,-0.52652 -0.42392,-0.31208 -1.43802,-1.474 -1.45312,-1.66518 -0.007,-0.0465 -0.18577,-0.44244 -0.40488,-0.88147 -0.23082,-0.4631 -0.42856,-1.03738 -0.47117,-1.36833 -0.0397,-0.31389 -0.16554,-1.06058 -0.2784,-1.65965 -0.19871,-1.05654 -0.20389,-1.51808 -0.17704,-15.64147 l 0.0284,-14.55255 0.6215,-0.56144 c 1.77221,-1.60225 3.65055,-3.65915 4.3474,-4.76046 0.1081,-0.1714 0.25781,-0.34794 0.33282,-0.39281 0.0749,-0.0445 0.22922,-0.29268 0.34388,-0.55237 0.11522,-0.25957 0.32311,-0.60829 0.4629,-0.77449 0.13967,-0.16616 0.28676,-0.4073 0.32547,-0.53565 0.0379,-0.12888 0.1517,-0.32701 0.24992,-0.44075 0.0984,-0.11423 0.28554,-0.47769 0.4159,-0.8068 0.13021,-0.32954 0.31532,-0.70282 0.41116,-0.82981 0.096,-0.12657 0.23528,-0.44026 0.30795,-0.6971 0.0738,-0.25633 0.26284,-0.72516 0.42135,-1.04096 0.15918,-0.31631 0.32309,-0.82265 0.36514,-1.12674 0.0421,-0.304 0.18729,-0.79612 0.32272,-1.09259 0.14398,-0.31444 0.3301,-1.0759 0.44717,-1.82842 0.11053,-0.709064 0.27049,-1.474983 0.35497,-1.703003 0.53584,-1.445489 0.51345,-8.966426 -0.0302,-10.162658 -0.10328,-0.228043 -0.26566,-0.741206 -0.35956,-1.14059 -0.0936,-0.39938 -0.28131,-0.889231 -0.41586,-1.088906 -0.13457,-0.19923 -0.28031,-0.479811 -0.32282,-0.622391 -0.16139,-0.540998 -1.48158,-1.907495 -2.15377,-2.230406 -0.28846,-0.138802 -0.44485,-0.286349 -0.46659,-0.440722 -0.0237,-0.16713 -0.85806,-0.259926 -1.68645,-0.269243 z m 0.18626,4.304928 c 0.0704,-0.01074 0.32309,0.249229 0.56246,0.573527 0.34459,0.466443 0.47293,0.764559 0.61314,1.425497 0.0976,0.459821 0.25506,1.116382 0.35035,1.458659 0.37101,1.335525 0.3221,4.474059 -0.10185,6.505887 -0.0801,0.384724 -0.21735,1.242112 -0.30425,1.904953 -0.0869,0.663268 -0.22804,1.352529 -0.31344,1.532379 -0.0841,0.17941 -0.26649,0.77638 -0.40293,1.32677 -0.13606,0.55003 -0.32161,1.13227 -0.41229,1.29375 -0.0896,0.16186 -0.2604,0.58982 -0.37796,0.95148 -0.11757,0.3612 -0.30475,0.7551 -0.41679,0.87499 -0.11172,0.1204 -0.20374,0.28172 -0.20374,0.35961 0,0.16426 -0.30151,0.77961 -0.42044,0.85745 -0.0444,0.0282 -0.20437,0.28606 -0.35497,0.57079 -0.1506,0.28472 -0.50476,0.84396 -0.78649,1.2429 -0.28142,0.39937 -0.6251,0.89593 -0.76436,1.10368 -0.26955,0.40082 -1.02787,0.62042 -1.1397,0.33014 -0.22187,-0.57828 0.004,-9.06744 0.30433,-11.543929 0.031,-0.256838 0.0986,-1.097149 0.15033,-1.867138 0.0676,-1.006526 0.16652,-1.626268 0.35313,-2.205518 0.1425,-0.442811 0.31555,-1.166206 0.38434,-1.607115 0.0698,-0.440942 0.20518,-0.94201 0.30444,-1.112913 0.0993,-0.171329 0.28422,-0.637911 0.41022,-1.037263 0.12649,-0.398915 0.28971,-0.796034 0.36329,-0.88146 0.0748,-0.08515 0.21704,-0.318488 0.31812,-0.518195 0.34556,-0.684045 1.07122,-1.435924 1.43009,-1.480812 0.18122,-0.02261 0.38609,-0.04856 0.45547,-0.0581 z m 8.94104,21.655922 -0.53576,0.52283 c -0.52014,0.50645 -0.53882,0.54362 -0.58002,1.19038 -0.0573,0.89307 -0.004,1.05548 0.55148,1.63099 l 0.47393,0.49335 h 0.83076 c 1.04701,0 1.57245,-0.2333 1.81081,-0.80405 0.69025,-1.65131 -0.0983,-3.0335 -1.73164,-3.0335 z m -30.44843,24.13704 0.18162,0.24057 c 0.0996,0.13279 0.24128,0.42943 0.31349,0.66025 0.0726,0.23088 0.21609,0.51686 0.31991,0.63437 0.10329,0.11813 0.2634,0.46312 0.35411,0.76822 0.0898,0.30433 0.27573,0.73058 0.41211,0.94682 0.13688,0.2167 0.28039,0.59354 0.31813,0.83897 0.0374,0.24561 0.19555,0.70309 0.35035,1.01716 0.15532,0.31348 0.34404,0.89688 0.41858,1.29636 0.0752,0.39886 0.2167,0.89048 0.31535,1.0916 0.0985,0.2011 0.30398,0.96711 0.45556,1.70215 0.15148,0.73545 0.34331,1.46912 0.42684,1.63017 0.0826,0.16093 0.19559,0.76064 0.24992,1.3323 0.055,0.57175 0.21287,1.51693 0.35216,2.10036 0.27995,1.17412 0.47621,2.61959 0.4767,3.50568 0,0.31772 0.0917,1.08812 0.20283,1.71117 0.26955,1.51404 0.39539,3.06698 0.52007,6.4211 0.0577,1.54002 0.16285,4.03674 0.23511,5.54804 0.39086,8.19575 0.081,15.29497 -0.71365,16.34209 -0.1341,0.17652 -0.24436,0.36477 -0.24436,0.41859 0,0.2011 -0.99906,1.05628 -1.37196,1.17466 -0.21339,0.0691 -0.416,0.16927 -0.45089,0.22591 -0.0857,0.13979 -0.77999,0.0154 -1.37108,-0.2462 -1.09761,-0.48535 -1.90253,-1.83259 -2.08193,-3.48342 -0.0814,-0.74832 -0.11619,-7.63169 -0.11619,-23.23069 V 133.4538 l 0.22405,-0.23972 z"
       style="fill:#040404;fill-rule:evenodd;stroke:none;stroke-width:0.94521266"
       id="path1" />
  </g>
</svg>
